# xmcd
#
# Track frame offsets:
#	150
#	15535
#	39867
#	60122
#	73320
#	94315
#	113352
#	131282
#	154847
#	164987
#	172347
#	184107
#	199770
#	215915
#	246030
#	273497
#	289570
#	306230
#
# Disc length: 4236 seconds
#
# Revision: 1
# Processed by: cddbd v1.4PL0 Copyright (c) Steve Scherf et al.
# Submitted via: audiograbber 1.80.04
#
DISCID=07108a12
DTITLE=Adi Hirschall/Wolfgang Böck - Schwoazze Luft
DYEAR=1900
DGENRE=
TTITLE0=Oh di liaba Augustin
TTITLE1=Lemonimann
TTITLE2=Mondscheinbrüder
TTITLE3=Schön ist so a Ringelspiel
TTITLE4=Schwoazze Luft
TTITLE5=Was braucht denn der Wiener
TTITLE6=I liassert Kirschn für die wachsen
TTITLE7=Viennas Provinzen
TTITLE8=Die Reblaus
TTITLE9=D´Eierspeistanz
TTITLE10=Umgang´sg´schicht´n
TTITLE11=Menschen, Menschen san ma alle
TTITLE12=Logische Beweise
TTITLE13=Des Glück is a Vogerl
TTITLE14=Aber  du bist mei Kittlfaltn
TTITLE15=Ich weiß, es wird einmal ein Wunder geschehen
TTITLE16=I bedank mi
TTITLE17=Die Putzgredlmirl
EXTD=
EXTT0=
EXTT1=
EXTT2=
EXTT3=
EXTT4=
EXTT5=
EXTT6=
EXTT7=
EXTT8=
EXTT9=
EXTT10=
EXTT11=
EXTT12=
EXTT13=
EXTT14=
EXTT15=
EXTT16=
EXTT17=
PLAYORDER=
